<svg width="44" height="34" viewBox="0 0 44 34" fill="none" xmlns="http://www.w3.org/2000/svg">
<path d="M13.2 17C17.4556 17 20.9 13.673 20.9 9.5625C20.9 5.45195 17.4556 2.125 13.2 2.125C8.94438 2.125 5.5 5.45195 5.5 9.5625C5.5 13.673 8.94438 17 13.2 17ZM18.48 19.125H17.9094C16.4794 19.7891 14.8913 20.1875 13.2 20.1875C11.5087 20.1875 9.9275 19.7891 8.49063 19.125H7.92C3.5475 19.125 0 22.5516 0 26.775V28.6875C0 30.4473 1.47812 31.875 3.3 31.875H23.1C24.9219 31.875 26.4 30.4473 26.4 28.6875V26.775C26.4 22.5516 22.8525 19.125 18.48 19.125ZM33 17C36.6437 17 39.6 14.1445 39.6 10.625C39.6 7.10547 36.6437 4.25 33 4.25C29.3563 4.25 26.4 7.10547 26.4 10.625C26.4 14.1445 29.3563 17 33 17ZM36.3 19.125H36.0388C35.0831 19.4438 34.0725 19.6562 33 19.6562C31.9275 19.6562 30.9169 19.4438 29.9613 19.125H29.7C28.2975 19.125 27.005 19.5168 25.8706 20.1477C27.5481 21.8941 28.6 24.2117 28.6 26.775V29.325C28.6 29.4711 28.5656 29.6105 28.5588 29.75H40.7C42.5219 29.75 44 28.3223 44 26.5625C44 22.452 40.5556 19.125 36.3 19.125Z" fill="black"/>
</svg>
