<svg width="44" height="44" viewBox="0 0 44 44" fill="none" xmlns="http://www.w3.org/2000/svg">
<path d="M36.7125 34.4137C36.7211 34.4008 36.734 34.3879 36.7426 34.375C39.557 31.0277 41.25 26.7137 41.25 22C41.25 17.2863 39.557 12.9723 36.7469 9.625C36.7383 9.61211 36.7254 9.60352 36.7168 9.59062C36.6695 9.53477 36.6266 9.4832 36.5793 9.43164C36.5621 9.41016 36.5449 9.39297 36.5277 9.37148L36.3516 9.16953L36.3473 9.16523C36.2828 9.09219 36.2141 9.01914 36.1496 8.94609L36.1453 8.9418C36.0078 8.7957 35.8703 8.64961 35.7285 8.50781L35.7242 8.50352L35.518 8.29727L35.5051 8.28438C35.4406 8.21992 35.3762 8.15977 35.3117 8.09961C35.2902 8.07812 35.2687 8.05664 35.243 8.03516C35.2 7.99219 35.157 7.95352 35.1141 7.91484C35.1012 7.90195 35.084 7.88906 35.0711 7.87187C31.6422 4.69219 27.0488 2.75 22 2.75C16.9512 2.75 12.3578 4.69219 8.92461 7.87187C8.91172 7.88477 8.89453 7.89766 8.88164 7.91484C8.83867 7.95352 8.7957 7.99648 8.75273 8.03945C8.73125 8.06094 8.70977 8.08242 8.68398 8.10391C8.61953 8.16406 8.55508 8.22852 8.49063 8.28867L8.47773 8.30156L8.27148 8.50781L8.26719 8.51211C8.12539 8.65391 7.98789 8.8 7.85039 8.94609L7.84609 8.95039C7.77734 9.02344 7.71289 9.09648 7.64844 9.16953L7.64414 9.17383C7.58398 9.23828 7.52383 9.30703 7.46797 9.37578C7.45078 9.39727 7.43359 9.41445 7.41641 9.43594C7.36914 9.4875 7.32617 9.54336 7.27891 9.59492C7.27031 9.60781 7.25742 9.61641 7.24883 9.6293C4.44297 12.9723 2.75 17.2863 2.75 22C2.75 26.7137 4.44297 31.0277 7.25313 34.375C7.26172 34.3879 7.27461 34.4008 7.2832 34.4137L7.41641 34.5727C7.43359 34.5941 7.45078 34.6113 7.46797 34.6328L7.64414 34.8348C7.64414 34.8391 7.64844 34.8391 7.64844 34.8434C7.71289 34.9164 7.77734 34.9895 7.84609 35.0582L7.85039 35.0625C7.98789 35.2086 8.12539 35.3547 8.26289 35.4965L8.26719 35.5008C8.33594 35.5695 8.40039 35.6383 8.46914 35.7027L8.48203 35.7156C8.62383 35.8574 8.76992 35.9949 8.91602 36.1281C12.3578 39.3078 16.9512 41.25 22 41.25C27.0488 41.25 31.6422 39.3078 35.0754 36.1281C35.2218 35.994 35.365 35.8564 35.5051 35.7156L35.518 35.7027C35.5867 35.634 35.6555 35.5695 35.7199 35.5008L35.7242 35.4965C35.866 35.3547 36.0035 35.2086 36.1367 35.0625L36.141 35.0582C36.2055 34.9852 36.2742 34.9164 36.3387 34.8434C36.3387 34.8391 36.343 34.8391 36.343 34.8348C36.4031 34.7703 36.4633 34.7016 36.5191 34.6328C36.5363 34.6113 36.5535 34.5941 36.5707 34.5727C36.6193 34.5209 36.6666 34.4678 36.7125 34.4137ZM36.8887 28.2863C36.2957 29.6871 35.5137 30.9848 34.5598 32.1621C33.4855 31.2336 32.3109 30.428 31.0578 29.7602C31.5562 27.7449 31.8656 25.532 31.9473 23.2031H38.1133C37.9844 24.9605 37.5719 26.6664 36.8887 28.2863ZM38.1133 20.7969H31.9473C31.8656 18.468 31.5562 16.2551 31.0578 14.2398C32.3168 13.5695 33.4898 12.7617 34.5598 11.8379C36.6333 14.3901 37.8737 17.5172 38.1133 20.7969ZM28.2863 7.11133C29.9922 7.8332 31.5434 8.83008 32.9098 10.0848C32.116 10.7606 31.2616 11.3619 30.3574 11.8809C29.6828 9.94727 28.8191 8.26719 27.8137 6.92227C27.9727 6.98242 28.1316 7.04688 28.2863 7.11133ZM24.3934 37.2152C23.998 37.5246 23.6027 37.7609 23.2031 37.9199V29.9492C24.9081 30.0682 26.5847 30.4478 28.1746 31.075C27.818 32.132 27.4055 33.1074 26.9285 33.9883C26.1809 35.3805 25.3043 36.4934 24.3934 37.2152ZM26.9285 10.0117C27.4012 10.8969 27.818 11.8723 28.1746 12.925C26.5847 13.5522 24.9081 13.9318 23.2031 14.0508V6.08438C23.5984 6.24336 23.998 6.47539 24.3934 6.78906C25.3043 7.50664 26.1809 8.61953 26.9285 10.0117ZM23.2031 27.5387V23.2031H29.541C29.4723 25.1023 29.2359 26.9457 28.8406 28.6945L28.8277 28.7461C27.0245 28.0623 25.1282 27.6552 23.2031 27.5387ZM23.2031 20.7969V16.4613C25.1711 16.341 27.0617 15.9242 28.8277 15.2539L28.8406 15.3055C29.2359 17.0543 29.4723 18.8934 29.541 20.7969H23.2031ZM20.7969 23.2031V27.5387C18.8289 27.659 16.9383 28.0758 15.1723 28.7461L15.1594 28.6945C14.7641 26.9457 14.5277 25.1066 14.459 23.2031H20.7969ZM14.459 20.7969C14.5277 18.8977 14.7641 17.0543 15.1594 15.3055L15.1723 15.2539C16.9383 15.9242 18.8246 16.341 20.7969 16.4613V20.7969H14.459ZM20.7969 29.9492V37.9156C20.4016 37.7566 20.002 37.5246 19.6066 37.2109C18.6957 36.4934 17.8148 35.3762 17.0672 33.984C16.5945 33.0988 16.1777 32.1234 15.8211 31.0707C17.4195 30.4434 19.0824 30.0695 20.7969 29.9492ZM20.7969 14.0508C19.0919 13.9318 17.4153 13.5522 15.8254 12.925C16.182 11.868 16.5945 10.8926 17.0715 10.0117C17.8191 8.61953 18.6957 7.50234 19.6109 6.78477C20.0063 6.47539 20.4016 6.23906 20.8012 6.08008V14.0508H20.7969ZM15.7137 7.11133C15.8727 7.04688 16.0273 6.98242 16.1863 6.92227C15.1809 8.26719 14.3172 9.94727 13.6426 11.8809C12.7402 11.3652 11.8852 10.7637 11.0902 10.0848C12.4566 8.83008 14.0078 7.8332 15.7137 7.11133ZM7.11133 15.7137C7.7043 14.3129 8.48633 13.0152 9.44023 11.8379C10.5102 12.7617 11.6832 13.5695 12.9422 14.2398C12.4438 16.2551 12.1344 18.468 12.0527 20.7969H5.88672C6.01562 19.0395 6.42812 17.3336 7.11133 15.7137ZM5.88672 23.2031H12.0527C12.1344 25.532 12.4438 27.7449 12.9422 29.7602C11.6891 30.428 10.5145 31.2336 9.44023 32.1621C7.36669 29.6099 6.12635 26.4828 5.88672 23.2031ZM15.7137 36.8887C14.0078 36.1668 12.4566 35.1699 11.0902 33.9152C11.8852 33.2363 12.7402 32.6391 13.6426 32.1191C14.3172 34.0527 15.1809 35.7328 16.1863 37.0777C16.0273 37.0176 15.8684 36.9531 15.7137 36.8887ZM28.2863 36.8887C28.1273 36.9531 27.9727 37.0176 27.8137 37.0777C28.8191 35.7328 29.6828 34.0527 30.3574 32.1191C31.2598 32.6348 32.1148 33.2363 32.9098 33.9152C31.5509 35.1647 29.9869 36.1706 28.2863 36.8887Z" fill="black"/>
</svg>
