<svg width="196" height="37" viewBox="0 0 196 37" fill="none" xmlns="http://www.w3.org/2000/svg">
<path d="M2.744 1.56C2.776 1.56 2.808 1.56 2.84 1.56C3.384 1.592 3.848 1.832 4.232 2.28C4.264 2.344 4.488 2.68 4.904 3.288C9.224 1.432 13.496 1.16 17.72 2.472C19.416 3.016 20.76 3.912 21.752 5.16C22.776 6.408 23.368 7.736 23.528 9.144C23.688 10.552 23.544 11.96 23.096 13.368C22.68 14.744 22.008 15.88 21.08 16.776C20.952 16.936 20.632 17.32 20.12 17.928C19.64 18.536 19.192 19.048 18.776 19.464C18.36 19.88 17.912 20.264 17.432 20.616C18.68 21.64 19.464 22.6 19.784 23.496C20.584 25.864 20.184 28.12 18.584 30.264C17.144 32.152 15.24 33.384 12.872 33.96C10.664 34.536 8.456 34.584 6.248 34.104C5.896 34.008 5.512 33.864 5.096 33.672C4.68 33.48 4.344 33.304 4.088 33.144C3.864 32.984 3.528 32.76 3.08 32.472C2.632 32.152 2.312 31.928 2.12 31.8C1.64 31.512 1.352 30.872 1.256 29.88C1.224 29.432 1.144 28.728 1.016 27.768C0.888 26.776 0.792 25.912 0.728 25.176C0.664 24.44 0.632 23.72 0.632 23.016C0.984 21.256 1.064 17.928 0.872 13.032C0.712 8.104 0.68 4.92 0.776 3.48C0.84 2.552 1.272 1.96 2.072 1.704C2.296 1.608 2.52 1.56 2.744 1.56ZM12.296 6.36C11.4 6.36 10.136 6.488 8.504 6.744C8.184 6.808 7.576 7.016 6.68 7.368C6.104 7.592 5.848 8.024 5.912 8.664C5.88 8.632 5.864 8.744 5.864 9C5.864 9.224 5.864 9.576 5.864 10.056C5.864 10.536 5.864 11.064 5.864 11.64C5.896 12.184 5.928 12.808 5.96 13.512C5.992 14.184 6.008 14.792 6.008 15.336C6.04 15.88 6.072 16.44 6.104 17.016C6.136 17.592 6.152 17.976 6.152 18.168C6.184 18.36 6.2 18.52 6.2 18.648C7.288 18.648 8.408 18.408 9.56 17.928C10.744 17.448 11.816 16.84 12.776 16.104C13.736 15.368 14.504 14.728 15.08 14.184C15.656 13.64 16.152 13.128 16.568 12.648C16.984 12.168 17.288 11.624 17.48 11.016C17.704 10.408 17.72 9.768 17.528 9.096C17.368 8.392 16.936 7.816 16.232 7.368C15.176 6.664 13.864 6.328 12.296 6.36ZM14.12 23.64C13.416 23.64 12.712 23.752 12.008 23.976C9.896 24.616 8.264 24.984 7.112 25.08C6.536 25.112 6.264 25.416 6.296 25.992C6.296 26.792 6.392 27.32 6.584 27.576C6.808 27.8 7.336 27.96 8.168 28.056C8.264 28.088 8.712 28.136 9.512 28.2C10.888 28.04 11.624 27.944 11.72 27.912C13.64 27.4 14.936 26.456 15.608 25.08C15.768 24.728 15.768 24.424 15.608 24.168C15.448 23.88 15.192 23.72 14.84 23.688C14.616 23.656 14.376 23.64 14.12 23.64ZM33.3781 12.408C34.1141 12.408 34.8661 12.568 35.6341 12.888C37.0101 13.496 37.9541 14.376 38.4661 15.528C38.9781 16.68 38.9621 17.944 38.4181 19.32C36.9461 22.936 34.4661 24.856 30.9781 25.08C30.3061 25.144 30.0981 25.448 30.3541 25.992C30.5461 26.408 30.7221 26.76 30.8821 27.048C31.2981 27.688 31.7141 28.088 32.1301 28.248C32.5781 28.408 33.1701 28.36 33.9061 28.104C34.4501 27.944 35.3461 27.592 36.5941 27.048C37.5861 26.6 38.8021 26.296 40.2421 26.136C41.0101 26.04 41.5701 26.248 41.9221 26.76C42.2741 27.24 42.2741 27.848 41.9221 28.584C41.0901 30.216 39.7301 31.608 37.8421 32.76C35.9541 33.912 34.0501 34.456 32.1301 34.392C29.9541 34.296 28.1781 33.4 26.8021 31.704C24.2101 28.568 23.4261 25.16 24.4501 21.48C25.4101 18.088 27.4741 15.352 30.6421 13.272C31.5061 12.696 32.4181 12.408 33.3781 12.408ZM33.7141 16.728C33.2981 16.728 32.9461 16.92 32.6581 17.304C31.9541 18.232 31.3781 19.448 30.9301 20.952C30.8661 21.112 30.8981 21.24 31.0261 21.336C31.1861 21.432 31.4421 21.48 31.7941 21.48C32.9141 21.16 33.5061 21 33.5701 21C34.4981 20.584 35.1221 19.896 35.4421 18.936C35.7301 18.136 35.4421 17.48 34.5781 16.968C34.2581 16.808 33.9701 16.728 33.7141 16.728ZM58.409 2.472C58.473 2.472 58.537 2.472 58.601 2.472C59.049 2.472 59.513 2.52 59.993 2.616C61.689 2.872 63.017 3.624 63.977 4.872C64.937 6.088 65.305 7.544 65.081 9.24C64.953 10.2 64.585 10.968 63.977 11.544C63.657 11.832 63.289 11.976 62.873 11.976C62.489 11.944 62.153 11.752 61.865 11.4C61.417 10.92 61.113 10.2 60.953 9.24C60.889 8.792 60.841 8.488 60.809 8.328C60.777 8.168 60.665 7.96 60.473 7.704C60.281 7.416 60.041 7.208 59.753 7.08C59.337 6.952 58.937 6.888 58.553 6.888C58.169 6.856 57.801 6.904 57.449 7.032C57.097 7.16 56.761 7.304 56.441 7.464C56.153 7.624 55.865 7.88 55.577 8.232C55.289 8.552 55.033 8.856 54.809 9.144C54.585 9.432 54.345 9.8 54.089 10.248C53.865 10.696 53.673 11.08 53.513 11.4C53.353 11.688 53.177 12.088 52.985 12.6C52.793 13.08 52.649 13.448 52.553 13.704C52.457 13.96 52.329 14.312 52.169 14.76C52.073 14.952 52.009 15.096 51.977 15.192C51.369 16.856 50.905 18.728 50.585 20.808C50.265 22.888 50.281 24.872 50.633 26.76C50.985 28.616 51.801 29.64 53.081 29.832C55.577 30.216 57.417 29.56 58.601 27.864C58.761 27.608 59.225 27 59.993 26.04C60.793 25.08 61.401 24.248 61.817 23.544C60.473 23.544 59.753 23.544 59.657 23.544C59.145 23.48 58.681 23.384 58.265 23.256C57.785 23.096 57.385 22.824 57.065 22.44C56.777 22.024 56.633 21.592 56.633 21.144C56.697 20.184 57.161 19.496 58.025 19.08C58.153 19.016 58.697 18.856 59.657 18.6C63.817 17.448 67.401 16.872 70.409 16.872C70.953 16.872 71.417 16.952 71.801 17.112C72.697 17.464 73.193 18.072 73.289 18.936C73.417 19.8 73.097 20.536 72.329 21.144C71.881 21.464 71.081 21.784 69.929 22.104C69.449 22.232 69.145 22.376 69.017 22.536C68.921 22.664 68.921 22.952 69.017 23.4C69.241 24.776 69.385 27.4 69.449 31.272C69.449 32.072 69.449 32.552 69.449 32.712C69.385 33.384 69.113 33.944 68.633 34.392C68.153 34.84 67.577 35.064 66.905 35.064C66.233 35.096 65.641 34.904 65.129 34.488C64.617 34.072 64.297 33.528 64.169 32.856C64.169 32.792 64.121 32.072 64.025 30.696C63.801 30.728 63.593 30.808 63.401 30.936C63.209 31.032 63.065 31.128 62.969 31.224C62.905 31.32 62.809 31.48 62.681 31.704C62.553 31.896 62.457 32.024 62.393 32.088C60.921 33.88 59.209 34.952 57.257 35.304C53.417 36.04 50.281 35.32 47.849 33.144C46.153 31.608 45.241 29.72 45.113 27.48C45.049 26.392 45.065 25.272 45.161 24.12C45.257 22.936 45.513 21.304 45.929 19.224C46.345 17.144 46.809 15.448 47.321 14.136C48.217 11.736 49.113 9.784 50.009 8.28C50.905 6.776 51.929 5.512 53.081 4.488C54.617 3.176 56.393 2.504 58.409 2.472ZM79.31 10.488C79.982 10.488 80.59 10.824 81.134 11.496C81.326 11.72 81.486 12.68 81.614 14.376C81.646 14.6 81.662 14.776 81.662 14.904L81.806 15.432C82.254 14.248 82.958 13.208 83.918 12.312C84.878 11.416 85.646 10.936 86.222 10.872C87.054 10.776 87.854 10.856 88.622 11.112C89.422 11.368 90.046 11.8 90.494 12.408C92.286 14.776 92.878 17.464 92.27 20.472C92.174 20.984 91.95 21.4 91.598 21.72C91.246 22.008 90.814 22.184 90.302 22.248C89.118 22.408 88.286 21.96 87.806 20.904C87.518 20.296 87.278 19.32 87.086 17.976C86.99 17.528 86.782 17.064 86.462 16.584C86.142 16.072 85.822 15.832 85.502 15.864C84.734 15.992 83.918 18.088 83.054 22.152C82.19 26.184 81.742 28.952 81.71 30.456C81.71 31.16 81.438 31.736 80.894 32.184C80.382 32.6 79.758 32.808 79.022 32.808C78.318 32.776 77.726 32.552 77.246 32.136C76.766 31.688 76.494 31.096 76.43 30.36C76.398 30.04 76.382 29.608 76.382 29.064C76.446 27.816 76.51 25.944 76.574 23.448C76.734 19.416 76.846 16.408 76.91 14.424C76.942 13.4 77.134 12.552 77.486 11.88C77.902 10.984 78.51 10.52 79.31 10.488ZM102.625 8.136C102.785 8.136 102.961 8.136 103.153 8.136C103.985 8.2 104.737 8.424 105.409 8.808C106.081 9.192 106.625 9.72 107.041 10.392C107.489 11.032 107.841 11.688 108.097 12.36C108.353 13.032 108.593 13.8 108.817 14.664C108.913 15.048 109.057 16.184 109.249 18.072C109.441 19.96 109.601 22.152 109.729 24.648C109.857 27.144 109.793 29.288 109.537 31.08C109.441 31.688 109.249 32.168 108.961 32.52C108.673 32.84 108.417 33.048 108.193 33.144C107.969 33.24 107.649 33.32 107.233 33.384C106.785 33.48 106.161 33.416 105.361 33.192C104.593 32.968 103.969 32.904 103.489 33C103.265 33.032 102.961 33.08 102.577 33.144C102.193 33.24 101.873 33.304 101.617 33.336C101.393 33.368 101.121 33.4 100.801 33.432C100.481 33.464 100.161 33.464 99.8409 33.432C99.5529 33.432 99.2489 33.4 98.9289 33.336C97.4889 33.048 96.1929 32.456 95.0409 31.56C93.8889 30.632 93.1529 29.512 92.8329 28.2C92.2889 25.928 93.2649 23.768 95.7609 21.72C96.9449 20.76 98.0649 20.008 99.1209 19.464C99.2169 19.432 99.8249 19.192 100.945 18.744C102.065 18.264 102.833 17.832 103.249 17.448C103.857 16.84 103.889 15.512 103.345 13.464C103.153 12.792 102.801 12.424 102.289 12.36C101.777 12.264 101.201 12.376 100.561 12.696C100.337 12.792 99.7929 13.144 98.9289 13.752C98.0969 14.328 97.4249 14.616 96.9129 14.616C96.2409 14.616 95.7929 14.312 95.5689 13.704C95.3449 13.096 95.3449 12.504 95.5689 11.928C95.9849 10.648 96.8809 9.688 98.2569 9.048C99.6329 8.408 101.089 8.104 102.625 8.136ZM104.257 22.152C104.033 22.216 103.601 22.328 102.961 22.488C102.353 22.648 101.841 22.792 101.425 22.92C101.041 23.016 100.593 23.192 100.081 23.448C99.5689 23.704 99.1529 23.976 98.8329 24.264C98.0329 25 97.7609 25.736 98.0169 26.472C98.2729 27.208 98.9449 27.656 100.033 27.816C100.641 27.912 101.377 27.816 102.241 27.528C103.137 27.24 103.745 26.856 104.065 26.376C104.257 26.088 104.369 25.688 104.401 25.176C104.433 24.664 104.417 24.072 104.353 23.4C104.289 22.728 104.257 22.312 104.257 22.152ZM120.204 2.856C120.684 2.856 121.084 3.128 121.404 3.672C121.724 4.184 121.884 4.84 121.884 5.64C121.884 5.736 121.82 6.616 121.692 8.28C121.66 8.76 121.868 9.048 122.316 9.144C122.7 9.176 123.5 9.256 124.716 9.384C125.932 9.512 126.86 9.656 127.5 9.816C128.204 9.944 128.572 10.392 128.604 11.16C128.668 11.992 128.284 12.52 127.452 12.744C126.908 12.936 126.076 13.064 124.956 13.128C123.836 13.192 123.02 13.288 122.508 13.416C122.156 13.48 121.9 13.608 121.74 13.8C121.58 13.96 121.484 14.136 121.452 14.328C121.42 14.488 121.404 14.776 121.404 15.192C121.404 15.256 121.404 15.32 121.404 15.384C121.212 19.768 121.532 23.224 122.364 25.752C122.396 25.816 122.46 26.008 122.556 26.328C122.652 26.616 122.716 26.808 122.748 26.904C122.78 26.968 122.844 27.112 122.94 27.336C123.068 27.528 123.18 27.656 123.276 27.72C123.372 27.752 123.516 27.8 123.708 27.864C123.9 27.928 124.108 27.944 124.332 27.912C124.428 27.912 124.796 27.848 125.436 27.72C126.076 27.56 126.572 27.512 126.924 27.576C127.692 27.64 128.108 28.04 128.172 28.776C128.236 29.608 127.98 30.424 127.404 31.224C126.38 32.664 124.94 33.4 123.084 33.432C121.26 33.464 119.804 32.776 118.716 31.368C118.172 30.696 117.772 29.928 117.516 29.064C117.1 27.816 116.812 25.544 116.652 22.248C116.492 18.92 116.46 16.712 116.556 15.624C116.62 15.144 116.588 14.792 116.46 14.568C116.332 14.344 116.012 14.248 115.5 14.28C114.604 14.312 113.836 14.152 113.196 13.8C112.524 13.416 112.156 12.92 112.092 12.312C112.06 11.672 112.348 11.128 112.956 10.68C113.276 10.456 113.772 10.264 114.444 10.104C115.148 9.944 115.596 9.816 115.788 9.72C116.268 9.528 116.62 9.16 116.844 8.616C117.1 8.04 117.292 7.352 117.42 6.552C117.548 5.752 117.676 5.208 117.804 4.92C118.348 3.576 119.148 2.888 120.204 2.856ZM140.675 12.408C141.411 12.408 142.163 12.568 142.931 12.888C144.307 13.496 145.251 14.376 145.763 15.528C146.275 16.68 146.259 17.944 145.715 19.32C144.243 22.936 141.763 24.856 138.275 25.08C137.603 25.144 137.395 25.448 137.651 25.992C137.843 26.408 138.019 26.76 138.179 27.048C138.595 27.688 139.011 28.088 139.427 28.248C139.875 28.408 140.467 28.36 141.203 28.104C141.747 27.944 142.643 27.592 143.891 27.048C144.883 26.6 146.099 26.296 147.539 26.136C148.307 26.04 148.867 26.248 149.219 26.76C149.571 27.24 149.571 27.848 149.219 28.584C148.387 30.216 147.027 31.608 145.139 32.76C143.251 33.912 141.347 34.456 139.427 34.392C137.251 34.296 135.475 33.4 134.099 31.704C131.507 28.568 130.723 25.16 131.747 21.48C132.707 18.088 134.771 15.352 137.939 13.272C138.803 12.696 139.715 12.408 140.675 12.408ZM141.011 16.728C140.595 16.728 140.243 16.92 139.955 17.304C139.251 18.232 138.675 19.448 138.227 20.952C138.163 21.112 138.195 21.24 138.323 21.336C138.483 21.432 138.739 21.48 139.091 21.48C140.211 21.16 140.803 21 140.867 21C141.795 20.584 142.419 19.896 142.739 18.936C143.027 18.136 142.739 17.48 141.875 16.968C141.555 16.808 141.267 16.728 141.011 16.728ZM159.458 1.8C160.514 1.8 161.442 2.184 162.242 2.952C163.778 4.328 164.562 6.248 164.594 8.712C164.594 9.608 164.242 10.392 163.538 11.064C163.122 11.448 162.69 11.448 162.242 11.064C161.794 10.68 161.362 9.944 160.946 8.856C160.914 8.76 160.834 8.504 160.706 8.088C160.578 7.672 160.45 7.352 160.322 7.128C160.226 6.872 160.098 6.648 159.938 6.456C159.842 6.296 159.698 6.232 159.506 6.264C159.314 6.264 159.186 6.344 159.122 6.504C158.962 7.112 158.882 7.576 158.882 7.896C158.882 8.408 158.882 10.392 158.882 13.848H158.786C158.786 17.592 158.802 19.656 158.834 20.04C158.834 20.552 158.914 20.904 159.074 21.096C159.234 21.256 159.57 21.368 160.082 21.432C160.242 21.432 160.498 21.448 160.85 21.48C161.234 21.48 161.522 21.512 161.714 21.576C162.194 21.64 162.578 21.848 162.866 22.2C163.154 22.52 163.298 22.92 163.298 23.4C163.298 23.848 163.154 24.248 162.866 24.6C162.61 24.92 162.242 25.112 161.762 25.176C161.57 25.24 161.282 25.288 160.898 25.32C160.514 25.32 160.242 25.32 160.082 25.32C159.634 25.384 159.33 25.496 159.17 25.656C159.042 25.816 158.978 26.12 158.978 26.568C158.978 26.92 158.994 27.448 159.026 28.152C159.09 28.92 159.122 29.496 159.122 29.88C159.122 30.904 159.058 31.704 158.93 32.28C158.706 33.432 158.034 34.104 156.914 34.296C155.858 34.488 154.978 34.088 154.274 33.096C153.858 32.552 153.634 31.88 153.602 31.08C153.474 29.096 153.394 27.672 153.362 26.808C153.33 26.04 152.994 25.56 152.354 25.368C151.906 25.208 151.49 25 151.106 24.744C150.722 24.488 150.514 24.168 150.482 23.784C150.45 23.368 150.61 23 150.962 22.68C151.442 22.232 151.826 21.976 152.114 21.912C152.498 21.784 152.786 21.608 152.978 21.384C153.17 21.128 153.282 20.888 153.314 20.664C153.378 20.408 153.426 20.072 153.458 19.656C153.682 16.52 153.922 13.352 154.178 10.152C154.274 9.064 154.434 7.816 154.658 6.408C154.882 5 155.538 3.832 156.626 2.904C157.49 2.168 158.434 1.8 159.458 1.8ZM181.962 10.728C182.602 10.728 183.146 11.032 183.594 11.64C184.01 12.216 184.298 13.032 184.458 14.088C184.778 16.264 185.002 18.744 185.13 21.528C185.13 21.784 185.194 25.128 185.322 31.56C185.354 32.616 185.114 33.432 184.602 34.008C183.898 34.776 183.034 35.08 182.01 34.92C181.018 34.76 180.298 34.2 179.85 33.24C179.626 32.696 179.514 31.992 179.514 31.128V26.904L179.082 27.768C178.794 28.312 178.394 28.968 177.882 29.736C177.402 30.504 176.938 31.096 176.49 31.512C175.37 32.568 174.106 33.096 172.698 33.096C171.322 33.096 170.138 32.52 169.146 31.368C167.834 29.832 167.178 27.656 167.178 24.84C167.146 23.432 167.13 22.2 167.13 21.144C167.13 20.088 167.194 18.984 167.322 17.832C167.482 16.648 167.722 15.432 168.042 14.184C168.426 12.84 168.986 11.896 169.722 11.352C170.234 11.032 170.698 10.952 171.114 11.112C171.53 11.24 171.818 11.592 171.978 12.168C172.138 12.712 172.154 13.496 172.026 14.52C171.93 15.256 171.866 15.912 171.834 16.488C171.834 17.032 171.834 17.704 171.834 18.504C171.834 19.304 171.834 19.96 171.834 20.472C171.834 20.6 171.818 20.936 171.786 21.48C171.786 21.992 171.786 22.344 171.786 22.536C171.786 22.728 171.786 23.064 171.786 23.544C171.818 23.992 171.85 24.36 171.882 24.648C171.914 24.904 171.962 25.224 172.026 25.608C172.09 25.992 172.17 26.344 172.266 26.664C172.362 26.952 172.474 27.24 172.602 27.528C172.794 27.848 173.114 27.992 173.562 27.96C174.01 27.928 174.362 27.784 174.618 27.528C175.994 26.12 177.194 23.928 178.218 20.952C179.242 17.944 179.722 15.592 179.658 13.896C179.658 13.096 179.898 12.344 180.378 11.64C180.826 11.032 181.354 10.728 181.962 10.728ZM191.523 0.551997C192.323 0.519998 192.899 0.855998 193.251 1.56C193.443 1.912 193.587 2.376 193.683 2.952C193.747 3.336 193.795 3.96 193.827 4.824C193.891 5.752 194.003 7.464 194.163 9.96C194.323 12.456 194.451 14.44 194.547 15.912C194.643 17.352 194.723 19.112 194.787 21.192C194.851 23.24 194.851 25.048 194.787 26.616C194.787 27.032 194.867 27.976 195.027 29.448C195.123 30.216 194.979 30.904 194.595 31.512C193.891 32.568 192.931 33.016 191.715 32.856C191.171 32.76 190.691 32.552 190.275 32.232C189.891 31.912 189.619 31.496 189.459 30.984C189.139 30.056 188.979 28.872 188.979 27.432C188.979 26.984 188.979 23.224 188.979 16.152C188.979 11.416 188.979 8.792 188.979 8.28C188.979 6.232 189.123 4.488 189.411 3.048C189.539 2.376 189.715 1.848 189.939 1.464C190.291 0.888 190.819 0.583999 191.523 0.551997Z" fill="black"/>
</svg>
