<svg width="62" height="62" viewBox="0 0 62 62" fill="none" xmlns="http://www.w3.org/2000/svg">
<path d="M19.1423 31.0163L28.1715 19.4584C29.6682 17.5426 31.8646 16.2998 34.2776 16.0034C36.6906 15.707 39.1226 16.3813 41.0384 17.8779C42.9542 19.3746 44.1971 21.5711 44.4935 23.9841C44.7899 26.3971 44.1156 28.829 42.6189 30.7449L31.8968 44.4699C30.8491 45.811 29.3116 46.681 27.6225 46.8884C25.9334 47.0959 24.231 46.6239 22.8899 45.5762C21.5488 44.5286 20.6789 42.9911 20.4714 41.3019C20.2639 39.6128 20.7359 37.9105 21.7836 36.5694L31.3771 24.2891C31.9757 23.5228 32.8543 23.0256 33.8195 22.9071C34.7847 22.7885 35.7575 23.0582 36.5238 23.6569C37.2902 24.2556 37.7873 25.1341 37.9059 26.0994C38.0244 27.0646 37.7547 28.0373 37.156 28.8037L29.2555 38.9169" stroke="black" stroke-width="2" stroke-linecap="round" stroke-linejoin="round"/>
</svg>
