<svg width="39" height="39" viewBox="0 0 39 39" fill="none" xmlns="http://www.w3.org/2000/svg">
<path d="M17.4382 33.0382C16.9506 33.5256 16.2894 33.7994 15.6 33.7994C14.9105 33.7994 14.2493 33.5256 13.7618 33.0382L2.06175 21.3382C1.57433 20.8506 1.30051 20.1894 1.30051 19.5C1.30051 18.8106 1.57433 18.1494 2.06175 17.6618L13.7618 5.96179C14.2521 5.48818 14.9089 5.22611 15.5906 5.23204C16.2723 5.23796 16.9244 5.5114 17.4065 5.99346C17.8885 6.47552 18.162 7.12764 18.1679 7.80935C18.1738 8.49106 17.9118 9.14782 17.4382 9.63819L10.4 16.9L35.1 16.9C35.7895 16.9 36.4508 17.1739 36.9384 17.6615C37.426 18.1491 37.7 18.8104 37.7 19.5C37.7 20.1896 37.426 20.8509 36.9384 21.3385C36.4508 21.8261 35.7895 22.1 35.1 22.1L10.4 22.1L17.4382 29.3618C17.9256 29.8494 18.1994 30.5106 18.1994 31.2C18.1994 31.8894 17.9256 32.5506 17.4382 33.0382Z" fill="white"/>
</svg>
