<svg width="44" height="44" viewBox="0 0 44 44" fill="none" xmlns="http://www.w3.org/2000/svg">
<path d="M41.25 11C41.25 9.54131 40.6705 8.14236 39.6391 7.11091C38.6076 6.07946 37.2087 5.5 35.75 5.5H34.375V4.16367C34.375 3.42375 33.8061 2.78867 33.0662 2.75172C32.8803 2.74276 32.6945 2.77164 32.52 2.83661C32.3456 2.90158 32.1862 3.00129 32.0515 3.12969C31.9167 3.25809 31.8094 3.41251 31.7361 3.58359C31.6628 3.75468 31.625 3.93887 31.625 4.125V5.5H12.375V4.16367C12.375 3.42375 11.8061 2.78867 11.0662 2.75172C10.8803 2.74276 10.6945 2.77164 10.52 2.83661C10.3456 2.90158 10.1862 3.00129 10.0515 3.12969C9.91671 3.25809 9.80943 3.41251 9.73613 3.58359C9.66282 3.75468 9.62502 3.93887 9.625 4.125V5.5H8.25C6.79131 5.5 5.39236 6.07946 4.36091 7.11091C3.32946 8.14236 2.75 9.54131 2.75 11V12.0312C2.75 12.1224 2.78622 12.2098 2.85068 12.2743C2.91515 12.3388 3.00258 12.375 3.09375 12.375H40.9062C40.9974 12.375 41.0849 12.3388 41.1493 12.2743C41.2138 12.2098 41.25 12.1224 41.25 12.0312V11ZM2.75 35.75C2.75 37.2087 3.32946 38.6076 4.36091 39.6391C5.39236 40.6705 6.79131 41.25 8.25 41.25H35.75C37.2087 41.25 38.6076 40.6705 39.6391 39.6391C40.6705 38.6076 41.25 37.2087 41.25 35.75V15.3828C41.25 15.3144 41.2228 15.2489 41.1745 15.2005C41.1261 15.1522 41.0606 15.125 40.9922 15.125H3.00781C2.93944 15.125 2.87386 15.1522 2.82551 15.2005C2.77716 15.2489 2.75 15.3144 2.75 15.3828V35.75ZM32.3125 17.875C32.7204 17.875 33.1192 17.996 33.4584 18.2226C33.7975 18.4492 34.0619 18.7713 34.218 19.1482C34.3741 19.5251 34.415 19.9398 34.3354 20.3399C34.2558 20.74 34.0594 21.1075 33.7709 21.3959C33.4825 21.6843 33.115 21.8808 32.7149 21.9604C32.3148 22.0399 31.9001 21.9991 31.5232 21.843C31.1463 21.6869 30.8242 21.4225 30.5976 21.0834C30.371 20.7442 30.25 20.3454 30.25 19.9375C30.25 19.3905 30.4673 18.8659 30.8541 18.4791C31.2409 18.0923 31.7655 17.875 32.3125 17.875ZM32.3125 24.75C32.7204 24.75 33.1192 24.871 33.4584 25.0976C33.7975 25.3242 34.0619 25.6463 34.218 26.0232C34.3741 26.4001 34.415 26.8148 34.3354 27.2149C34.2558 27.615 34.0594 27.9825 33.7709 28.2709C33.4825 28.5593 33.115 28.7558 32.7149 28.8354C32.3148 28.9149 31.9001 28.8741 31.5232 28.718C31.1463 28.5619 30.8242 28.2975 30.5976 27.9584C30.371 27.6192 30.25 27.2204 30.25 26.8125C30.25 26.2655 30.4673 25.7409 30.8541 25.3541C31.2409 24.9673 31.7655 24.75 32.3125 24.75ZM25.4375 17.875C25.8454 17.875 26.2442 17.996 26.5834 18.2226C26.9225 18.4492 27.1869 18.7713 27.343 19.1482C27.4991 19.5251 27.54 19.9398 27.4604 20.3399C27.3808 20.74 27.1844 21.1075 26.8959 21.3959C26.6075 21.6843 26.24 21.8808 25.8399 21.9604C25.4398 22.0399 25.0251 21.9991 24.6482 21.843C24.2713 21.6869 23.9492 21.4225 23.7226 21.0834C23.496 20.7442 23.375 20.3454 23.375 19.9375C23.375 19.3905 23.5923 18.8659 23.9791 18.4791C24.3659 18.0923 24.8905 17.875 25.4375 17.875ZM25.4375 24.75C25.8454 24.75 26.2442 24.871 26.5834 25.0976C26.9225 25.3242 27.1869 25.6463 27.343 26.0232C27.4991 26.4001 27.54 26.8148 27.4604 27.2149C27.3808 27.615 27.1844 27.9825 26.8959 28.2709C26.6075 28.5593 26.24 28.7558 25.8399 28.8354C25.4398 28.9149 25.0251 28.8741 24.6482 28.718C24.2713 28.5619 23.9492 28.2975 23.7226 27.9584C23.496 27.6192 23.375 27.2204 23.375 26.8125C23.375 26.2655 23.5923 25.7409 23.9791 25.3541C24.3659 24.9673 24.8905 24.75 25.4375 24.75ZM25.4375 31.625C25.8454 31.625 26.2442 31.746 26.5834 31.9726C26.9225 32.1992 27.1869 32.5213 27.343 32.8982C27.4991 33.2751 27.54 33.6898 27.4604 34.0899C27.3808 34.49 27.1844 34.8575 26.8959 35.1459C26.6075 35.4343 26.24 35.6308 25.8399 35.7104C25.4398 35.7899 25.0251 35.7491 24.6482 35.593C24.2713 35.4369 23.9492 35.1725 23.7226 34.8334C23.496 34.4942 23.375 34.0954 23.375 33.6875C23.375 33.1405 23.5923 32.6159 23.9791 32.2291C24.3659 31.8423 24.8905 31.625 25.4375 31.625ZM18.5625 24.75C18.9704 24.75 19.3692 24.871 19.7084 25.0976C20.0475 25.3242 20.3119 25.6463 20.468 26.0232C20.6241 26.4001 20.665 26.8148 20.5854 27.2149C20.5058 27.615 20.3094 27.9825 20.0209 28.2709C19.7325 28.5593 19.365 28.7558 18.9649 28.8354C18.5648 28.9149 18.1501 28.8741 17.7732 28.718C17.3963 28.5619 17.0742 28.2975 16.8476 27.9584C16.621 27.6192 16.5 27.2204 16.5 26.8125C16.5 26.2655 16.7173 25.7409 17.1041 25.3541C17.4909 24.9673 18.0155 24.75 18.5625 24.75ZM18.5625 31.625C18.9704 31.625 19.3692 31.746 19.7084 31.9726C20.0475 32.1992 20.3119 32.5213 20.468 32.8982C20.6241 33.2751 20.665 33.6898 20.5854 34.0899C20.5058 34.49 20.3094 34.8575 20.0209 35.1459C19.7325 35.4343 19.365 35.6308 18.9649 35.7104C18.5648 35.7899 18.1501 35.7491 17.7732 35.593C17.3963 35.4369 17.0742 35.1725 16.8476 34.8334C16.621 34.4942 16.5 34.0954 16.5 33.6875C16.5 33.1405 16.7173 32.6159 17.1041 32.2291C17.4909 31.8423 18.0155 31.625 18.5625 31.625ZM11.6875 24.75C12.0954 24.75 12.4942 24.871 12.8334 25.0976C13.1725 25.3242 13.4369 25.6463 13.593 26.0232C13.7491 26.4001 13.79 26.8148 13.7104 27.2149C13.6308 27.615 13.4344 27.9825 13.1459 28.2709C12.8575 28.5593 12.49 28.7558 12.0899 28.8354C11.6898 28.9149 11.2751 28.8741 10.8982 28.718C10.5213 28.5619 10.1992 28.2975 9.97259 27.9584C9.74596 27.6192 9.625 27.2204 9.625 26.8125C9.625 26.2655 9.8423 25.7409 10.2291 25.3541C10.6159 24.9673 11.1405 24.75 11.6875 24.75ZM11.6875 31.625C12.0954 31.625 12.4942 31.746 12.8334 31.9726C13.1725 32.1992 13.4369 32.5213 13.593 32.8982C13.7491 33.2751 13.79 33.6898 13.7104 34.0899C13.6308 34.49 13.4344 34.8575 13.1459 35.1459C12.8575 35.4343 12.49 35.6308 12.0899 35.7104C11.6898 35.7899 11.2751 35.7491 10.8982 35.593C10.5213 35.4369 10.1992 35.1725 9.97259 34.8334C9.74596 34.4942 9.625 34.0954 9.625 33.6875C9.625 33.1405 9.8423 32.6159 10.2291 32.2291C10.6159 31.8423 11.1405 31.625 11.6875 31.625Z" fill="black"/>
</svg>
