<svg width="44" height="44" viewBox="0 0 44 44" fill="none" xmlns="http://www.w3.org/2000/svg">
<path d="M32.9319 37.5L22.521 26.3C21.6947 27.0111 20.7445 27.5741 19.6704 27.9889C18.5962 28.4037 17.4532 28.6111 16.2414 28.6111C13.2393 28.6111 10.6988 27.4923 8.61996 25.2547C6.54109 23.017 5.5011 20.284 5.5 17.0556C5.4989 13.8271 6.53889 11.0941 8.61996 8.85644C10.701 6.61881 13.2415 5.5 16.2414 5.5C19.2413 5.5 21.7823 6.61881 23.8645 8.85644C25.9467 11.0941 26.9861 13.8271 26.9828 17.0556C26.9828 18.3593 26.79 19.5889 26.4044 20.7444C26.0188 21.9 25.4955 22.9222 24.8345 23.8111L35.2454 35.0111L32.9319 37.5ZM16.2414 25.0556C18.307 25.0556 20.0631 24.2781 21.5096 22.7231C22.9561 21.1681 23.6788 19.279 23.6777 17.0556C23.6766 14.8321 22.9539 12.9436 21.5096 11.3898C20.0653 9.836 18.3093 9.05793 16.2414 9.05556C14.1735 9.05319 12.418 9.83126 10.9748 11.3898C9.5316 12.9483 8.80835 14.8369 8.80504 17.0556C8.80174 19.2742 9.52499 21.1634 10.9748 22.7231C12.4246 24.2828 14.1801 25.0603 16.2414 25.0556Z" fill="black" fill-opacity="0.39"/>
</svg>
