<?xml version="1.0" encoding="UTF-8"?>
<svg version="1.1" viewBox="0 0 1080 1080" width="1080" height="1080" xmlns="http://www.w3.org/2000/svg">
<path transform="translate(0)" d="m0 0h1080v1080h-1080z" fill="#FEFEFE"/>
<path transform="translate(456,350)" d="m0 0h19l12 4 6 5 3 6-1 8-5 5-7 4-9 2h-15l-10-3-8-6-4-8 2-8 7-6z" fill="#0D0D0D"/>
<path transform="translate(456,401)" d="m0 0h18l10 3 9 6 3 6-1 8-5 5-7 4-9 2h-14l-9-2-9-6-4-6-1-5 3-7 5-4z" fill="#232323"/>
<path transform="translate(458,469)" d="m0 0h15l13 4 8 7 2 5-1 7-4 5-8 4-8 2h-17l-11-4-7-6-3-8 2-6 5-5 9-4z" fill="#383939"/>
<path transform="translate(456,549)" d="m0 0h19l12 4 6 5 3 7-1 6-5 6-8 4-11 2-16-1-10-5-5-5-2-3v-9l5-6 9-4z" fill="#4F5050"/>
<path transform="translate(456,629)" d="m0 0h19l12 4 6 5 3 9-3 7-5 4-11 4h-21l-10-4-7-7-1-2v-9l5-6 9-4z" fill="#666"/>
<path transform="translate(902,325)" d="m0 0h12l5 4 1 7-3 5-4 3 11 9-2 2h-8l-12-9-17 2 1 12-8 1-1-1-4-30 1-1z" fill="#0C0C0C"/>
<path transform="translate(902,376)" d="m0 0h12l5 4 1 7-3 5-4 3 11 9-2 2h-8l-12-9-17 2 1 12-8 1-1-1-4-30 8-2z" fill="#222323"/>
<path transform="translate(503,471)" d="m0 0h32l9 2 4 4 1 4-2 6-5 3h-3l7 8 4 5h-9l-11-11-18-1-1 12h-8z" fill="#383838"/>
<path transform="translate(905,444)" d="m0 0h7l6 3 2 4-1 7-5 4h-2v2l4 2 8 6-1 2h-9l-10-8h-11l-8 2 1 11-8 1-1-1-4-30 24-4z" fill="#393939"/>
<path transform="translate(503,352)" d="m0 0h36l7 3 3 5-1 6-4 4-4 2 10 10v2h-9l-5-5-8-7h-16l-1 12h-8z" fill="#090909"/>
<path transform="translate(503,403)" d="m0 0h36l7 3 3 5-2 7-3 3-4 2 8 8 2 4h-9l-11-11-2-1h-16l-1 12h-8z" fill="#202121"/>
<path transform="translate(902,524)" d="m0 0h12l5 4 1 6-3 5-4 4 11 9-4 2h-6l-11-9-13 1-5 1 1 12-8 1-1-1-4-30 1-1z" fill="#4F4F4F"/>
<path transform="translate(503,551)" d="m0 0h36l7 3 2 2v8l-5 5-3 2 9 9v2h-9l-11-11-18-1v12h-8z" fill="#4E4F4F"/>
<path transform="translate(503,631)" d="m0 0h37l6 3 2 2v8l-5 5h-4l7 8 3 3v2h-9l-9-10-2-1-18-1v12h-8z" fill="#666"/>
<path transform="translate(902,604)" d="m0 0h12l5 4 1 6-3 5-5 3 12 10v1l-9 1-12-9-19 1 2 12-1 1h-7l-2-9-2-14v-8z" fill="#666"/>
<path transform="translate(351,345)" d="m0 0h7l6 9 8 16v2h2l2-6 11-18 5-1 6 2 5 10 6 14 3-3 13-20h9l-2 5-17 25-4 1-7-1-5-8-6-14v-2l-3 3-10 17-2 2h-11l-15-29z" fill="#0B0B0B"/>
<path transform="translate(138,319)" d="m0 0 40 6 5 1v6l-5 1-32-5-1 5 34 5 2 1-1 6-11-1-25-4-1 5 35 5 1 1v6l-2 1-30-5-14-2 1-10 3-20z" fill="#0D0D0D"/>
<path transform="translate(191,328)" d="m0 0h9l36 5 1 1v5l-1 1-13-1-23-3-1 5 32 4 4 1v5l-1 1h-8l-29-4v5l33 4 4 1-1 7-46-6 3-24z" fill="#0D0D0D"/>
<path transform="translate(351,396)" d="m0 0h6l4 4 11 21v2h2l2-6 11-18 5-1 6 2 4 8 7 16 3-3 13-20h9l-2 5-15 22-4 4-9-1-5-8-6-14v-2l-3 3-10 17-2 2h-11l-16-31z" fill="#212222"/>
<path transform="translate(964,315)" d="m0 0h8l1 5-2 2-32 5h-3l1 5 10-1 22-4h5v6l-7 2-24 4h-5l1 5 31-5h6l1 6-1 1-42 7h-3l-5-30 2-2z" fill="#0C0C0C"/>
<path transform="translate(191,379)" d="m0 0 16 1 29 4 1 1v5l-1 1-13-1-23-3-1 5 32 4 4 1v5l-1 1h-8l-29-4 1 5 32 4 4 1-1 7-46-6 3-24z" fill="#222323"/>
<path transform="translate(139,370)" d="m0 0 39 6 5 2v5l-5 1-32-5-1 5 34 5 2 1-1 6-11-1-24-4-2-1v6l35 5 1 1v6l-2 1-36-6-8-1 1-10 3-20z" fill="#232323"/>
<path transform="translate(965,366)" d="m0 0h7l1 5-2 2-32 5h-3l1 5 16-2 16-3 5 1v5l-7 2-24 4h-5l1 5 14-2 18-3h5l1 6-1 1-42 7h-3l-5-30 2-2z" fill="#222323"/>
<path transform="translate(351,465)" d="m0 0h8l12 22 1 4h2l2-5 11-19h10l3 5 8 19v2l5-5 12-18 1-1h8l-2 5-17 25-1 1-11-1-10-22v-2l-3 3-11 19h-12l-10-19z" fill="#383838"/>
<path transform="translate(966,434)" d="m0 0h6l1 6-8 2-25 4h-4l1 6 36-6 1 1v6l-29 5h-7l1 5 16-2 17-3h4l1 7-42 7h-4l-4-24v-7l21-4z" fill="#393939"/>
<path transform="translate(192,447)" d="m0 0 13 1 29 4 3 1v5l-1 1-14-1-15-2h-8l-1 5 14 1 22 3 1 5-2 2-36-5v6l15 1 21 3 1 3-1 4-26-3-20-3 4-30z" fill="#393939"/>
<path transform="translate(351,544)" d="m0 0h7l5 8 9 17v2h2l2-6 11-18 5-1 6 2 7 15 4 9 4-4 10-16 2-3h9l-2 5-10 14-7 10-1 1h-10l-3-4-8-19h-2l-12 20-1 1h-10l-5-8-12-23z" fill="#4F5050"/>
<path transform="translate(138,439)" d="m0 0 13 1 31 5 1 1v5l-1 1-11-1-26-4-1 6 12 1 25 4-1 6-13-1-24-4v5l33 5 3 1v6l-2 1-44-7 1-9 3-21z" fill="#393939"/>
<path transform="translate(191,527)" d="m0 0h9l36 5 1 5-1 2-18-2-19-3v6l32 4 4 1v5l-1 1-13-1-22-3-2-1v6l33 4 4 1-1 6-15-1-30-4-1-2z" fill="#4F5050"/>
<path transform="translate(964,514)" d="m0 0h8l1 5-5 2-31 5-1 6 33-6h5v6l-20 4-16 2 1 5 31-5h6l1 6-21 4-24 4-2-7-3-18v-6l7-2z" fill="#4F5050"/>
<path transform="translate(139,518)" d="m0 0 44 7-1 7-33-5-4-1v6l34 5 2 1-1 6-22-3-15-3v5l9 2 26 4 1 1v6l-18-2-27-4-1-4 4-26z" fill="#4F5050"/>
<path transform="translate(351,624)" d="m0 0h7l5 8 9 17v2h2l2-6 9-15 3-4 9 1 3 5 8 19h3l10-16 4-6h9l-5 9-14 20-1 1h-9l-3-2-9-21v-2l-3 3-9 16-4 4h-8l-3-2-8-16-7-13z" fill="#666"/>
<path transform="translate(138,598)" d="m0 0 34 5 11 2v5l-1 1-13-1-24-4v6l34 5 2 1-1 6-34-5-3-1v5l9 2 26 4 1 1v6l-23-3-23-4 3-21z" fill="#666"/>
<path transform="translate(191,607)" d="m0 0h9l36 5 1 4-1 3-24-3-13-1v5l33 4 3 1-1 6-19-2-15-2-3-1v5l10 2 23 3 3 1v6l-13-1-32-4 1-15z" fill="#666"/>
<path transform="translate(835,334)" d="m0 0h9l5 3 2 3v7l-4 4-8 3-17 2h-7l1 3v9l-1 1h-7l-3-22v-9l12-2z" fill="#0C0C0C"/>
<path transform="translate(964,594)" d="m0 0h8v6l-35 6-1 6 33-6h5v6l-35 6-1 2 1 3 31-5h6l1 6-45 8-1-1-4-24v-6l7-2z" fill="#666"/>
<path transform="translate(835,385)" d="m0 0h9l5 3 2 3v7l-4 4-8 3-17 2h-7l1 3v9l-1 1h-7l-3-22v-9l21-3z" fill="#222323"/>
<path transform="translate(838,453)" d="m0 0 8 1 5 5v7l-5 5-13 3-17 2v12h-8l-3-22v-9z" fill="#393939"/>
<path transform="translate(835,533)" d="m0 0h9l5 3 2 3v6l-4 5-10 3-22 2 1 4v8l-8 1-3-23v-8l12-2z" fill="#4F5050"/>
<path transform="translate(835,613)" d="m0 0h9l5 3 2 3v6l-5 5-5 2-26 3 1 5v7l-7 1-1-1-3-23v-7l12-2z" fill="#666"/>
<path transform="translate(776,339)" d="m0 0h15l6 2 1 8-9-3h-14l-12 3-1 4h31l6 3 2 3v6l-5 5-9 3-6 1h-20l-5-2-1-7 9 2h17l11-2-1-4-6-1-21 1-7-2-4-4v-7l6-5 9-3z" fill="#0E0E0E"/>
<path transform="translate(776,390)" d="m0 0h15l6 2 1 8-9-3h-14l-12 3-1 4h30l7 3 2 3v6l-5 5-9 3-6 1h-20l-5-2-1-7 9 2h18l10-2-1-4-7-1-20 1-7-2-4-4v-7l6-5 9-3z" fill="#242525"/>
<path transform="translate(745,343)" d="m0 0 3 1 2 23v8l-13 1-28-16-5-3 1 21-9 1-2-20v-12h10l25 15 12 7-2-25z" fill="#0B0B0B"/>
<path transform="translate(780,458)" d="m0 0h8l9 2 1 8-10-3h-12l-13 3-1 3 1 1 32 1 5 3 1 2v6l-4 5-9 3-6 1h-22l-4-2-1-7 7 2 13 1 13-2 4-2-1-3h-29l-8-4-1-2v-6l4-5 13-4z" fill="#3A3A3A"/>
<path transform="translate(746,394)" d="m0 0 2 1 2 23v8l-13 1-28-16-5-3 1 21-9 1-2-20v-12h10l35 21 1 1-1-25z" fill="#212222"/>
<path transform="translate(740,463)" d="m0 0h8l2 24v7l-5 1h-8l-25-14-8-5 1 21-1 1h-8l-2-21v-10l1-1h8l24 14 13 8-1-24z" fill="#383939"/>
<path transform="translate(776,538)" d="m0 0h15l6 2 1 7-8-2h-17l-9 2-2 4 2 1h28l7 3 2 3-1 8-7 4-7 2-9 1h-13l-8-2-1-7 9 2h17l11-2v-5h-32l-5-3-2-3v-6l6-5 9-3z" fill="#4F5050"/>
<path transform="translate(745,542)" d="m0 0 3 1 2 24v7h-14l-25-14-8-5 2 22-8 1-1-1-2-21v-10h10l35 21 1 1v-10l-1-15z" fill="#4E4F4F"/>
<path transform="translate(776,618)" d="m0 0h16l5 2v7l-11-3-15 1-9 2v4l2 1h29l6 3 2 3-1 7-5 4-10 3-11 1h-9l-9-2-1-7 9 2h17l11-2-1-5h-31l-6-4-1-2v-6l5-5 10-3z" fill="#666"/>
<path transform="translate(745,622)" d="m0 0 3 1 2 25v6h-14l-26-15-6-4v22h-8l-2-22v-9h10l35 21h2l-2-24z" fill="#666"/>
<path transform="translate(597,351)" d="m0 0h16l-2 2-27 10 5 4 17 10 8 5v1h-14l-18-11-6-4-7 1-3 2v12l-1 1h-8v-32h8l1 2-1 8 28-10z" fill="#0D0D0D"/>
<path transform="translate(597,402)" d="m0 0h16l-2 2-27 10 5 4 25 15v1h-14l-18-11-6-4-7 1-3 1v13l-5 1h-4v-32h8v10l28-10z" fill="#232424"/>
<path transform="translate(610,470)" d="m0 0 3 1-29 11-1 1 11 6 18 11 2 2h-14l-18-11-6-4-6 1-5 1 1 2v12h-9v-32h8v11l12-5 17-6z" fill="#393939"/>
<path transform="translate(87,310)" d="m0 0 13 2 28 5 3 1v7l-8-1-29-5v5l34 6 2 3-2 4-9-1-28-5-1 11-3 1-6-2 2-14 3-16z" fill="#0D0D0D"/>
<path transform="translate(597,550)" d="m0 0h16l-3 2-27 10 26 16 4 2v2h-11l-10-5-17-11-9 3v13h-9v-31h8v10l28-10z" fill="#4F5050"/>
<path transform="translate(87,361)" d="m0 0 30 5 14 3v7l-8-1-29-5-1 6 17 2 18 3 2 3-2 4-9-1-28-5-1 11-3 1-6-2 2-13 3-17z" fill="#232323"/>
<path transform="translate(460,634)" d="m0 0h11l10 3 5 4 1 7-5 6-7 3h-15l-10-4-4-5v-6l5-5z" fill="#FEFEFE"/>
<path transform="translate(86,430)" d="m0 0 12 1 33 6v7l-9-1-29-5v6l21 3 13 2 3 3-2 4-10-1-27-5-1 11-3 1-6-1 2-14z" fill="#393939"/>
<path transform="translate(463,554)" d="m0 0 12 1 9 4 3 4-1 7-6 5-5 2h-15l-10-4-4-5v-6l5-5z" fill="#FEFEFE"/>
<path transform="translate(459,475)" d="m0 0h14l9 3 5 5v6l-5 5-5 3-5 1h-8l-13-4-5-6 1-7 5-4z" fill="#FEFEFE"/>
<path transform="translate(87,509)" d="m0 0 13 2 28 5 3 1v6l-3 1-31-6h-3v5l16 3 18 3 1 1v5l-4 1-32-6h-1l-2 11-2 1-7-2 5-30z" fill="#4F5050"/>
<path transform="translate(597,630)" d="m0 0h15l-3 2-26 10 23 14 7 4v1h-14l-22-14-5-1-6 3v13h-9v-31h8v10l28-10z" fill="#666"/>
<path transform="translate(458,407)" d="m0 0h16l9 4 4 4-1 7-6 5-5 2h-15l-10-4-4-5v-6l6-5z" fill="#FEFEFE"/>
<path transform="translate(458,356)" d="m0 0h16l9 4 4 4-1 7-6 5-5 2h-15l-10-4-4-5 1-7 5-4z" fill="#FEFEFE"/>
<path transform="translate(87,589)" d="m0 0 13 2 28 5 3 1v6l-11-1-27-5 1 6 34 6 1 5-1 2-29-5-8-2-1 12-9-1 5-30z" fill="#666"/>
<path transform="translate(245,334)" d="m0 0 9 1-2 21-1 4 13 1 18 2 4 1-1 7-37-4-6-1 1-16z" fill="#0C0C0C"/>
<path transform="translate(245,385)" d="m0 0 8 1 1 3-3 22 22 2 13 2-1 7-43-5 1-15z" fill="#222323"/>
<path transform="translate(245,454)" d="m0 0h8l1 3-3 23h10l25 3-1 7-38-4-5-1 1-15z" fill="#393939"/>
<path transform="translate(245,533)" d="m0 0 9 1-3 25 22 2 13 2-1 6-17-1-26-3 1-15z" fill="#4F4F4F"/>
<path transform="translate(245,613)" d="m0 0 9 1-3 25 14 1 21 3-1 6-15-1-28-3 1-14z" fill="#666"/>
<path transform="translate(678,348)" d="m0 0h9l1 31-1 1h-7l-1-1-1-18z" fill="#101010"/>
<path transform="translate(678,399)" d="m0 0h9l1 31-1 1h-7l-1-1-1-18z" fill="#252626"/>
<path transform="translate(678,467)" d="m0 0h8l1 4 1 28h-8l-1-1-1-19z" fill="#3B3B3B"/>
<path transform="translate(856,331)" d="m0 0h9l4 28v3l-2 1h-7l-4-28z" fill="#0C0C0C"/>
<path transform="translate(857,382)" d="m0 0h8l4 31-9 1-4-28z" fill="#222323"/>
<path transform="translate(857,450)" d="m0 0h8l4 31-1 1h-8l-4-28z" fill="#393939"/>
<path transform="translate(678,547)" d="m0 0h8l1 3 1 28-8 1-1-2-1-19z" fill="#4F5050"/>
<path transform="translate(857,530)" d="m0 0h8l4 31-9 1-4-31z" fill="#4F5050"/>
<path transform="translate(857,610)" d="m0 0h8l4 30-7 2-2-1-4-30z" fill="#666"/>
<path transform="translate(678,627)" d="m0 0h8l2 24v7h-8l-2-23z" fill="#666"/>
<path transform="translate(830,619)" d="m0 0h10l3 2-1 4-5 2-16 2h-7l-1-7 10-2z" fill="#FEFEFE"/>
<path transform="translate(511,477)" d="m0 0h23l5 2 1 4-7 2h-21l-1-1z" fill="#FEFEFE"/>
<path transform="translate(899,610)" d="m0 0h11l2 4-4 3-17 3h-8l-1-7z" fill="#FEFEFE"/>
<path transform="translate(832,539)" d="m0 0h8l3 3-1 3-5 2-15 2h-8v-7l10-2z" fill="#FEFEFE"/>
<path transform="translate(901,530)" d="m0 0h8l2 1-1 5-12 3-7 1h-8l-1-7z" fill="#FEFEFE"/>
<path transform="translate(828,460)" d="m0 0h13l1 5-9 3-18 2-1-1v-7z" fill="#FEFEFE"/>
<path transform="translate(906,450)" d="m0 0 5 2-1 4-9 3-17 2-2-7 1-1z" fill="#FEFEFE"/>
<path transform="translate(834,391)" d="m0 0 7 1 1 5-5 2-15 2h-8v-7z" fill="#FEFEFE"/>
<path transform="translate(512,636)" d="m0 0 26 1 2 2-1 4-2 1h-26v-7z" fill="#FEFEFE"/>
<path transform="translate(834,340)" d="m0 0 7 1 1 5-5 2-16 2h-7v-7z" fill="#FEFEFE"/>
<path transform="translate(903,382)" d="m0 0h6l2 2-1 4-11 3-15 2-1-1v-7z" fill="#FEFEFE"/>
<path transform="translate(511,557)" d="m0 0h26l3 2-1 4-2 1h-26z" fill="#FEFEFE"/>
<path transform="translate(511,409)" d="m0 0h25l4 2-1 4-2 1h-26z" fill="#FEFEFE"/>
<path transform="translate(511,358)" d="m0 0h25l4 2-1 4-2 1h-26z" fill="#FEFEFE"/>
<path transform="translate(903,331)" d="m0 0 7 1 1 4-7 3-13 2h-8v-7z" fill="#FEFEFE"/>
<path transform="translate(1006,369)" d="m0 0 5 1 1 4-4 3-5-1-1-4z" fill="#2C2D2D"/>
<path transform="translate(643,360)" d="m0 0 5 1 2 4-4 3-5-1-1-4z" fill="#171717"/>
<path transform="translate(1006,318)" d="m0 0 5 1 1 4-4 3-5-1-1-4z" fill="#191919"/>
<path transform="translate(643,411)" d="m0 0 5 1 2 4-4 3-5-1-1-4z" fill="#292A2A"/>
<path transform="translate(48,365)" d="m0 0 7 1 1 4-2 2h-6l-2-5z" fill="#272828"/>
<path transform="translate(48,314)" d="m0 0 7 1 1 4-2 2h-6l-2-5z" fill="#121212"/>
<path transform="translate(1e3 438)" d="m0 0h6l2 4-3 3h-5l-2-4z" fill="#3D3D3D"/>
<path transform="translate(48,513)" d="m0 0 7 1 1 4-2 2h-5l-3-3z" fill="#505151"/>
<path transform="translate(642,480)" d="m0 0h6l2 4-3 3-6-1-1-4z" fill="#3E3E3E"/>
<path transform="translate(49,433)" d="m0 0 5 1 2 4-1 2-4 1-4-2-1-3z" fill="#3D3D3D"/>
<path transform="translate(315,404)" d="m0 0h6l2 2-1 4-1 1h-5l-2-2z" fill="#252626"/>
<path transform="translate(315,353)" d="m0 0h6l2 2-1 4-1 1h-5l-2-2z" fill="#0E0E0E"/>
<path transform="translate(643,559)" d="m0 0 5 1 2 3-2 3h-6l-2-4z" fill="#515252"/>
<path transform="translate(316,472)" d="m0 0h5l2 2-1 4-1 1h-5l-2-2v-4z" fill="#393939"/>
<path transform="translate(315,552)" d="m0 0h6l2 2-1 4-5 1-3-2z" fill="#515151"/>
<path transform="translate(1006,517)" d="m0 0 5 1 1 3-2 3h-6l-2-4z" fill="#515151"/>
<path transform="translate(643,639)" d="m0 0 5 1 1 5-7 1-2-4z" fill="#666"/>
<path transform="translate(48,593)" d="m0 0 7 1 1 3-2 3h-5l-2-2z" fill="#666"/>
<path transform="translate(1006,597)" d="m0 0 5 1v5l-7 1-2-4z" fill="#666"/>
<path transform="translate(315,632)" d="m0 0h6l2 2-1 4h-7l-1-5z" fill="#666"/>
</svg>
